<svg width="20" height="20" viewBox="0 0 20 20" fill="none" xmlns="http://www.w3.org/2000/svg">
<g clip-path="url(#clip0_142_57)">
<path fill-rule="evenodd" clip-rule="evenodd" d="M9.21846 0.0577113C8.04656 0.319261 7.07561 1.07576 6.56126 2.12816C6.23826 2.78911 6.20271 2.96536 6.18166 4.01026L6.16341 4.91576L4.81006 4.92821C3.22946 4.94276 3.15591 4.96221 2.97661 5.41401C2.93236 5.52546 1.71781 18.9028 1.71826 19.2741C1.71856 19.5369 1.83381 19.76 2.03771 19.8922L2.20286 19.9993H9.98996C18.4799 19.9993 17.8679 20.016 18.0929 19.7782C18.2273 19.6361 18.281 19.4916 18.281 19.2717C18.281 18.9535 17.0733 5.60806 17.0311 5.46001C16.8924 4.97336 16.787 4.94291 15.1894 4.92821L13.836 4.91576L13.8178 4.01026C13.7967 2.96536 13.7612 2.78911 13.4382 2.12816C12.687 0.591311 10.8551 -0.307539 9.21846 0.0577113ZM10.6289 1.54646C11.7772 1.88391 12.333 2.72001 12.3723 4.16916L12.3926 4.92116H9.99971H7.60681L7.62716 4.16916C7.64966 3.33861 7.68256 3.17531 7.91801 2.72471C8.42556 1.75351 9.59861 1.24366 10.6289 1.54646ZM6.17161 7.12561C6.17161 8.13851 6.31881 8.39771 6.89426 8.39771C7.46966 8.39771 7.61691 8.13851 7.61691 7.12561V6.40551H9.99971H12.3825V7.12561C12.3825 8.13851 12.5298 8.39771 13.1052 8.39771C13.6806 8.39771 13.8279 8.13851 13.8279 7.12561V6.40551H14.7458C15.2507 6.40551 15.6638 6.41811 15.6638 6.43351C15.6638 6.49076 16.7164 18.2283 16.7358 18.3879L16.756 18.554H9.99761H3.23921L3.26186 18.3684C3.27931 18.2255 4.33566 6.46851 4.33566 6.41726C4.33566 6.41081 4.74871 6.40551 5.25361 6.40551H6.17161V7.12561Z" fill="black"/>
</g>
<defs>
<clipPath id="clip0_142_57">
<rect width="20" height="20" fill="white"/>
</clipPath>
</defs>
</svg>