<svg width="36" height="36" viewBox="0 0 36 36" fill="none" xmlns="http://www.w3.org/2000/svg">
<path d="M30.3827 5.57016C27.0626 2.25 22.6483 0.421875 17.9529 0.421875C13.2581 0.421875 8.8439 2.25 5.52374 5.57016C2.20358 8.89031 0.374756 13.3045 0.374756 18C0.374756 22.6955 2.20288 27.1097 5.52304 30.4298C8.8439 33.75 13.2581 35.5781 17.9529 35.5781C22.6483 35.5781 27.0626 33.75 30.3827 30.4298C33.7029 27.1097 35.531 22.6955 35.531 18C35.531 13.3045 33.7029 8.89031 30.3827 5.57016ZM18.8339 33.7922V14.7713H29.8962C30.1746 15.8013 30.3244 16.8834 30.3244 18C30.3244 18.1441 30.3209 18.2869 30.3159 18.4296H32.0182C32.0224 18.2869 32.0252 18.1434 32.0252 18C32.0252 16.8891 31.8951 15.8084 31.6512 14.7713H31.6533C31.5176 14.1947 31.3467 13.6315 31.1421 13.0845H31.1386H29.3083H29.3041H6.60163H6.59741H4.76718H4.76366C4.75452 13.1091 4.74679 13.1337 4.73765 13.1576C4.55202 13.6645 4.39382 14.1848 4.26655 14.7164C4.26233 14.7347 4.25741 14.7523 4.25319 14.7705H4.2553C4.01062 15.8084 3.88124 16.8891 3.88124 18C3.88124 18.1441 3.88405 18.2869 3.88827 18.4296H5.58983C5.58491 18.2869 5.5814 18.1434 5.5814 18C5.5814 16.8834 5.73116 15.8013 6.0096 14.7713H17.0719V33.7922C8.75882 33.333 2.13608 26.4255 2.13608 18C2.13608 9.27844 9.23132 2.1832 17.9529 2.1832C26.6744 2.1832 33.7697 9.27844 33.7697 18C33.7697 26.4255 27.1469 33.333 18.8339 33.7922Z" fill="#CA5B02"/>
<path d="M28.5377 22.0043H29.6128C28.3366 25.6381 25.38 28.5152 21.7132 29.6895V15.8182H19.9518V31.9352L21.0227 31.6983C23.58 31.1323 25.927 29.861 27.8114 28.0216C29.6922 26.1851 31.0197 23.8732 31.649 21.3356L31.9204 20.243H28.5377V22.0043V22.0043Z" fill="#CA5B02"/>
<path d="M7.36873 22.0043H6.29365C7.56982 25.6381 10.5265 28.5152 14.1933 29.6895V15.8182H15.9546V31.9352L14.8837 31.6983C12.3265 31.1323 9.97943 29.861 8.09505 28.0216C6.21419 26.1851 4.88669 23.8732 4.2574 21.3356L3.98669 20.243H7.36943V22.0043H7.36873Z" fill="#CA5B02"/>
<path d="M27.5695 10.2572H21.4734C21.8637 9.62298 22.0894 8.87766 22.0894 8.08032C22.0894 7.4011 21.9248 6.75985 21.6352 6.19313C20.9869 4.92469 19.7086 4.03032 18.2145 3.92696C18.1188 3.92063 18.0218 3.91571 17.9248 3.91571C17.827 3.91571 17.7307 3.92063 17.6351 3.92696C16.1416 4.03032 14.8627 4.92399 14.2144 6.19313C13.9247 6.75985 13.7602 7.4011 13.7602 8.08032C13.7602 8.87766 13.9859 9.62368 14.3761 10.2572H8.28H6.17765C5.80711 10.8176 5.47594 11.4061 5.18695 12.0185H7.09664H16.5741H17.0726V10.2572V10.2452C16.2098 9.90423 15.5974 9.06259 15.5974 8.08032C15.5974 6.79712 16.6416 5.75298 17.9248 5.75298C19.208 5.75298 20.2521 6.79712 20.2521 8.08032C20.2521 9.04149 19.6664 9.86766 18.8339 10.2227V10.2572V12.0185H19.2762H28.7536H30.6633C30.375 11.4061 30.0431 10.8176 29.6726 10.2572H27.5695V10.2572Z" fill="#CA5B02"/>
</svg>
