<svg width="63" height="32" viewBox="0 0 63 32" fill="none" xmlns="http://www.w3.org/2000/svg">
<path d="M30.1313 16C30.1313 7.16344 37.2948 0 46.1313 0V0C54.9679 0 62.1313 7.16344 62.1313 16V16C62.1313 24.8366 54.9679 32 46.1313 32V32C37.2948 32 30.1313 24.8366 30.1313 16V16Z" fill="#708B96"/>
<path fill-rule="evenodd" clip-rule="evenodd" d="M47.6673 22.365C47.6673 22.365 47.6673 22.3649 47.6673 22.3649V23.072H53.1713V21.088H50.4534C52.0887 19.849 53.1394 17.923 53.1394 15.76C53.1394 12.0221 50.0018 8.992 46.1314 8.992C42.261 8.992 39.1234 12.0221 39.1234 15.76C39.1234 17.923 40.174 19.849 41.8094 21.088H39.0913V23.072H44.5953V23.04H44.5953V20.4054C42.5899 19.7741 41.1394 17.9401 41.1394 15.776C41.1394 13.0897 43.3743 10.912 46.1314 10.912C48.8884 10.912 51.1234 13.0897 51.1234 15.776C51.1234 17.9402 49.6728 19.7742 47.6673 20.4054V22.365Z" fill="white"/>
<path d="M0.131348 15.9929C0.166706 7.14923 7.25062 0.0245265 16.0907 6.38187e-05C24.9707 -0.0245885 32.0539 7.09607 32.1307 15.849C32.2088 24.7505 25.0599 31.9754 16.1507 31.9999C7.31029 32.0242 0.158056 24.8692 0.131348 15.9929ZM16.0526 6.03627C16.0751 6.03539 16.0977 6.03444 16.1202 6.03355C18.0117 9.28304 19.9033 12.5325 21.8068 15.8028C21.8549 15.7232 21.8838 15.6773 21.9107 15.6304C23.6835 12.5387 25.4555 9.44663 27.2318 6.357C27.2878 6.25953 27.2678 6.20827 27.1988 6.14126C26.7115 5.66794 26.2519 5.16219 25.7357 4.72313C23.1816 2.55063 20.2179 1.38103 16.8745 1.20196C14.5592 1.07794 12.3337 1.49418 10.2063 2.42395C8.23011 3.28767 6.52696 4.52806 5.08427 6.13084C5.00187 6.22236 4.99354 6.28475 5.0575 6.39607C6.56946 9.0259 8.07624 11.6586 9.5841 14.2908C9.85491 14.7635 10.1263 15.2359 10.4109 15.7319C12.3003 12.4848 14.1765 9.26054 16.0526 6.03627ZM16.2268 25.7124C16.2108 25.6933 16.1948 25.6741 16.1789 25.6549C16.7694 24.566 17.4031 23.5007 18.016 22.4241C18.6317 21.3426 19.2528 20.2643 19.8718 19.1847C20.4891 18.1079 21.1067 17.0313 21.7358 15.9343C17.9919 15.9343 14.2842 15.9343 10.5461 15.9343C10.5973 16.0385 10.632 16.1203 10.6758 16.1967C11.8214 18.1972 12.968 20.1971 14.1141 22.1974C14.7293 23.2711 15.3445 24.3449 15.9571 25.4202C16.0009 25.4971 16.023 25.5863 16.0681 25.7032C12.341 25.7032 8.66282 25.7032 4.98463 25.7032C4.97895 25.724 4.97327 25.7448 4.96759 25.7656C8.30127 29.36 12.404 31.1181 17.325 30.7507C21.2983 30.4541 24.5957 28.717 27.2657 25.7831C27.2591 25.7595 27.2525 25.7359 27.2459 25.7123C23.5728 25.7124 19.8998 25.7124 16.2268 25.7124ZM4.79357 6.54512C4.77463 6.5393 4.75569 6.53349 4.73675 6.52767C2.43168 9.37451 1.25935 12.6306 1.32925 16.3048C1.39296 19.6522 2.50461 22.6359 4.56835 25.261C4.58552 25.2575 4.6027 25.2539 4.61987 25.2504C4.67777 19.0154 4.73567 12.7803 4.79357 6.54512ZM27.6616 25.2691C29.5947 22.9662 31.3719 19.0295 30.8573 14.3793C30.5312 11.4324 29.4095 8.81996 27.5371 6.53273C27.5213 6.53716 27.5056 6.54164 27.4898 6.54607C27.547 12.7784 27.6042 19.0109 27.6616 25.2691Z" fill="#970CBC"/>
<path d="M16.0525 6.03625C14.1764 9.26051 12.3002 12.4848 10.4108 15.7319C10.1262 15.236 9.85485 14.7635 9.58404 14.2908C8.07619 11.6587 6.56941 9.02587 5.05745 6.39611C4.99348 6.28479 5.00176 6.2224 5.08422 6.13087C6.52691 4.5281 8.23 3.28771 10.2062 2.42399C12.3337 1.49422 14.5591 1.07798 16.8745 1.202C20.2178 1.38107 23.1815 2.55067 25.7357 4.72316C26.2519 5.16223 26.7115 5.66798 27.1988 6.1413C27.2677 6.20824 27.2877 6.25951 27.2317 6.35704C25.4555 9.44667 23.6834 12.5388 21.9106 15.6304C21.8837 15.6774 21.8547 15.7232 21.8068 15.8028C19.9032 12.5326 18.0117 9.28308 16.1202 6.03359C16.0975 6.03441 16.075 6.03536 16.0525 6.03625Z" fill="black"/>
<path d="M16.2268 25.7124C19.8998 25.7124 23.5728 25.7124 27.2458 25.7124C27.2524 25.736 27.2591 25.7595 27.2657 25.7831C24.5957 28.7171 21.2983 30.4541 17.325 30.7507C12.404 31.1181 8.30122 29.36 4.96753 25.7656C4.97321 25.7448 4.97889 25.724 4.98458 25.7033C8.66276 25.7033 12.3409 25.7033 16.0681 25.7033C16.0229 25.5863 16.0008 25.4971 15.9571 25.4203C15.3445 24.345 14.7293 23.2712 14.114 22.1974C12.968 20.1972 11.8213 18.1973 10.6757 16.1968C10.6319 16.1203 10.5973 16.0386 10.546 15.9343C14.2841 15.9343 17.9919 15.9343 21.7358 15.9343C21.1067 17.0313 20.4891 18.108 19.8718 19.1848C19.2528 20.2643 18.6316 21.3427 18.0159 22.4241C17.403 23.5007 16.7694 24.566 16.1789 25.655C16.1948 25.6741 16.2108 25.6933 16.2268 25.7124Z" fill="#000001"/>
<path d="M4.79345 6.54509C4.73555 12.7802 4.67765 19.0153 4.61975 25.2504C4.60257 25.254 4.5854 25.2575 4.56823 25.261C2.50448 22.636 1.39283 19.6523 1.32912 16.3049C1.25923 12.6305 2.43149 9.37454 4.73662 6.52771C4.75563 6.53346 4.77457 6.53928 4.79345 6.54509Z" fill="#010001"/>
<path d="M27.6616 25.2691C27.6042 19.0109 27.547 12.7785 27.4897 6.54599C27.5055 6.54157 27.5213 6.53708 27.5371 6.53265C29.4095 8.81988 30.5312 11.4323 30.8573 14.3792C31.3719 19.0295 29.5947 22.9662 27.6616 25.2691Z" fill="#010001"/>
</svg>
