<svg width="63" height="32" viewBox="0 0 63 32" fill="none" xmlns="http://www.w3.org/2000/svg">
<path d="M30.1313 16C30.1313 7.16344 37.2948 0 46.1313 0C54.9679 0 62.1313 7.16344 62.1313 16C62.1313 24.8366 54.9679 32 46.1313 32C37.2948 32 30.1313 24.8366 30.1313 16Z" fill="#708B96"/>
<path fill-rule="evenodd" clip-rule="evenodd" d="M47.6673 22.365V22.3649V23.072H53.1713V21.088H50.4534C52.0887 19.849 53.1394 17.923 53.1394 15.76C53.1394 12.0221 50.0018 8.992 46.1314 8.992C42.261 8.992 39.1234 12.0221 39.1234 15.76C39.1234 17.923 40.174 19.849 41.8094 21.088H39.0913V23.072H44.5953V23.04V20.4054C42.5899 19.7741 41.1394 17.9401 41.1394 15.776C41.1394 13.0897 43.3743 10.912 46.1314 10.912C48.8884 10.912 51.1234 13.0897 51.1234 15.776C51.1234 17.9402 49.6728 19.7742 47.6673 20.4054V22.365Z" fill="white"/>
<circle cx="23" cy="16" r="16" fill="url(#paint0_linear_7_11)"/>
<path d="M30.6201 8.35087C28.577 6.30769 25.8605 5.18269 22.971 5.18269C20.0819 5.18269 17.3655 6.30769 15.3223 8.35087C13.2791 10.394 12.1537 13.1105 12.1537 16C12.1537 18.8895 13.2787 21.606 15.3219 23.6491C17.3655 25.6923 20.0819 26.8173 22.971 26.8173C25.8605 26.8173 28.577 25.6923 30.6201 23.6491C32.6633 21.606 33.7883 18.8895 33.7883 16C33.7883 13.1105 32.6633 10.394 30.6201 8.35087ZM23.5132 25.7183V14.0131H30.3207C30.4921 14.647 30.5842 15.3129 30.5842 16C30.5842 16.0887 30.5821 16.1765 30.579 16.2644H31.6266C31.6292 16.1765 31.6309 16.0883 31.6309 16C31.6309 15.3163 31.5509 14.6513 31.4007 14.0131H31.402C31.3185 13.6583 31.2134 13.3117 31.0874 12.975H31.0853H29.959H29.9564H15.9856H15.983H14.8567H14.8546C14.8489 12.9902 14.8442 13.0053 14.8385 13.02C14.7243 13.332 14.627 13.6522 14.5486 13.9793C14.546 13.9906 14.543 14.0014 14.5404 14.0126H14.5417C14.3911 14.6513 14.3115 15.3163 14.3115 16C14.3115 16.0887 14.3133 16.1765 14.3159 16.2644H15.363C15.3599 16.1765 15.3578 16.0883 15.3578 16C15.3578 15.3129 15.4499 14.647 15.6213 14.0131H22.4288V25.7183C17.3131 25.4357 13.2376 21.185 13.2376 16C13.2376 10.6329 17.6039 6.26659 22.971 6.26659C28.3381 6.26659 32.7044 10.6329 32.7044 16C32.7044 21.185 28.6289 25.4357 23.5132 25.7183Z" fill="white"/>
<path d="M29.4848 18.4642H30.1463C29.361 20.7003 27.5415 22.4709 25.285 23.1935V14.6573H24.2011V24.5755L24.8601 24.4297C26.4338 24.0814 27.8782 23.2991 29.0378 22.1672C30.1952 21.037 31.0122 19.6143 31.3994 18.0527L31.5664 17.3803H29.4848V18.4642V18.4642Z" fill="white"/>
<path d="M16.4577 18.4642H15.7961C16.5814 20.7003 18.4009 22.4709 20.6574 23.1935V14.6573H21.7413V24.5755L21.0823 24.4297C19.5086 24.0814 18.0643 23.2991 16.9047 22.1672C15.7472 21.037 14.9303 19.6143 14.543 18.0527L14.3764 17.3803H16.4581V18.4642H16.4577Z" fill="white"/>
<path d="M28.8889 11.2352H25.1375C25.3776 10.8449 25.5165 10.3862 25.5165 9.89557C25.5165 9.47759 25.4153 9.08297 25.237 8.73422C24.8381 7.95365 24.0514 7.40326 23.132 7.33966C23.0731 7.33576 23.0134 7.33273 22.9537 7.33273C22.8935 7.33273 22.8343 7.33576 22.7754 7.33966C21.8564 7.40326 21.0693 7.95321 20.6704 8.73422C20.4921 9.08297 20.3909 9.47759 20.3909 9.89557C20.3909 10.3862 20.5297 10.8453 20.7699 11.2352H17.0184H15.7247C15.4967 11.58 15.2929 11.9422 15.115 12.3191H16.2902H22.1225H22.4293V11.2352V11.2278C21.8984 11.018 21.5215 10.5 21.5215 9.89557C21.5215 9.10591 22.164 8.46336 22.9537 8.46336C23.7434 8.46336 24.3859 9.10591 24.3859 9.89557C24.3859 10.4871 24.0255 10.9955 23.5132 11.214V11.2352V12.3191H23.7853H29.6176H30.7928C30.6154 11.9422 30.4111 11.58 30.1831 11.2352H28.8889V11.2352Z" fill="white"/>
<defs>
<linearGradient id="paint0_linear_7_11" x1="11.9231" y1="-2.81447e-07" x2="35.3077" y2="35.0769" gradientUnits="userSpaceOnUse">
<stop stop-color="#FF7200"/>
<stop offset="1" stop-color="#CA5B02"/>
</linearGradient>
</defs>
</svg>
