<?xml version="1.0" encoding="iso-8859-1"?>
<!-- Generator: Adobe Illustrator 19.0.0, SVG Export Plug-In . SVG Version: 6.00 Build 0)  -->
<svg version="1.1" id="Layer_1" xmlns="http://www.w3.org/2000/svg" xmlns:xlink="http://www.w3.org/1999/xlink" x="0px" y="0px"
	 viewBox="0 0 612 792" style="enable-background:new 0 0 612 792;" xml:space="preserve">
<g>
	<path style="fill:#970CBC;" d="M52.791,396.768c0.56-139.907,112.753-252.62,252.759-253.007
		c140.639-0.39,252.822,112.259,254.038,250.73c1.236,140.822-111.986,255.121-253.087,255.509
		C166.489,650.384,53.214,537.191,52.791,396.768z M304.947,239.254c0.357-0.014,0.714-0.029,1.071-0.043
		c29.957,51.407,59.915,102.814,90.063,154.549c0.761-1.259,1.219-1.984,1.645-2.727c28.077-48.91,56.142-97.827,84.274-146.705
		c0.888-1.542,0.57-2.353-0.522-3.413c-7.718-7.488-14.997-15.489-23.172-22.435c-40.452-34.369-87.39-52.872-140.341-55.705
		c-36.669-1.962-71.916,4.623-105.61,19.332c-31.298,13.664-58.272,33.287-81.121,58.643c-1.305,1.448-1.437,2.435-0.424,4.196
		c23.946,41.604,47.81,83.254,71.691,124.895c4.289,7.478,8.587,14.952,13.094,22.798
		C245.52,341.27,275.234,290.262,304.947,239.254z M307.706,550.531c-0.253-0.303-0.506-0.606-0.758-0.909
		c9.352-17.227,19.388-34.08,29.095-51.112c9.751-17.109,19.589-34.168,29.392-51.247c9.777-17.035,19.558-34.068,29.522-51.422
		c-59.295,0-118.017,0-177.22,0c0.811,1.649,1.36,2.942,2.054,4.152c18.143,31.648,36.304,63.286,54.455,94.93
		c9.744,16.987,19.487,33.974,29.189,50.986c0.693,1.216,1.044,2.627,1.758,4.477c-59.029,0-117.283,0-175.537,0
		c-0.09,0.329-0.18,0.658-0.27,0.986c52.798,56.864,117.776,84.677,195.714,78.865c62.927-4.692,115.151-32.173,157.438-78.588
		c-0.105-0.373-0.21-0.746-0.315-1.119C424.05,550.531,365.878,550.531,307.706,550.531z M126.63,247.304
		c-0.3-0.092-0.6-0.184-0.9-0.276c-36.507,45.037-55.074,96.548-53.967,154.675c1.009,52.956,18.615,100.158,51.3,141.687
		c0.272-0.056,0.544-0.112,0.816-0.168C124.796,444.584,125.713,345.944,126.63,247.304z M488.808,543.518
		c30.615-36.432,58.762-98.71,50.612-172.277c-5.165-46.62-22.929-87.949-52.584-124.133c-0.25,0.07-0.5,0.141-0.75,0.211
		C486.993,345.915,487.899,444.513,488.808,543.518z"/>
	<path d="M304.947,239.254c-29.713,51.008-59.427,102.016-89.351,153.386c-4.507-7.846-8.805-15.32-13.094-22.798
		c-23.881-41.641-47.745-83.292-71.691-124.895c-1.013-1.761-0.882-2.748,0.424-4.196c22.849-25.356,49.822-44.979,81.121-58.643
		c33.694-14.709,68.94-21.294,105.61-19.332c52.951,2.833,99.889,21.336,140.341,55.705c8.176,6.946,15.455,14.947,23.172,22.435
		c1.092,1.059,1.409,1.87,0.522,3.413c-28.132,48.878-56.197,97.795-84.274,146.705c-0.427,0.743-0.885,1.468-1.645,2.727
		c-30.148-51.734-60.105-103.142-90.063-154.549C305.661,239.225,305.304,239.24,304.947,239.254z"/>
	<path style="fill:#000001;" d="M307.706,550.531c58.172,0,116.344,0,174.516,0c0.105,0.373,0.21,0.746,0.315,1.119
		c-42.287,46.416-94.51,73.896-157.438,78.588c-77.938,5.812-142.916-22.002-195.714-78.865c0.09-0.329,0.18-0.658,0.27-0.986
		c58.254,0,116.507,0,175.537,0c-0.715-1.85-1.065-3.261-1.758-4.477c-9.702-17.011-19.445-33.999-29.189-50.986
		c-18.151-31.643-36.312-63.281-54.455-94.93c-0.694-1.21-1.243-2.503-2.054-4.152c59.203,0,117.926,0,177.22,0
		c-9.963,17.354-19.744,34.387-29.522,51.422c-9.803,17.079-19.641,34.138-29.392,51.247c-9.707,17.031-19.742,33.884-29.095,51.112
		C307.2,549.926,307.453,550.229,307.706,550.531z"/>
	<path style="fill:#010001;" d="M126.63,247.304c-0.917,98.64-1.834,197.279-2.751,295.919c-0.272,0.056-0.544,0.112-0.816,0.168
		c-32.685-41.529-50.291-88.731-51.3-141.687c-1.107-58.128,17.459-109.638,53.967-154.675
		C126.031,247.12,126.331,247.212,126.63,247.304z"/>
	<path style="fill:#010001;" d="M488.808,543.518c-0.91-99.005-1.816-197.602-2.722-296.2c0.25-0.07,0.5-0.141,0.75-0.211
		c29.655,36.184,47.419,77.513,52.584,124.133C547.571,444.808,519.424,507.086,488.808,543.518z"/>
</g>
</svg>