<svg width="63" height="32" viewBox="0 0 63 32" fill="none" xmlns="http://www.w3.org/2000/svg">
<path d="M30.1313 15.9929C30.1667 7.14923 37.2506 0.0245265 46.0907 6.38187e-05C54.9707 -0.0245885 62.0539 7.09607 62.1307 15.849C62.2088 24.7505 55.0599 31.9754 46.1507 31.9999C37.3103 32.0242 30.1581 24.8692 30.1313 15.9929ZM46.0526 6.03627C46.0751 6.03539 46.0977 6.03444 46.1202 6.03355C48.0117 9.28304 49.9033 12.5325 51.8068 15.8028C51.8549 15.7232 51.8838 15.6773 51.9107 15.6304C53.6835 12.5387 55.4555 9.44663 57.2318 6.357C57.2878 6.25953 57.2678 6.20827 57.1988 6.14126C56.7115 5.66794 56.2519 5.16219 55.7357 4.72313C53.1816 2.55063 50.2179 1.38103 46.8745 1.20196C44.5592 1.07794 42.3337 1.49418 40.2063 2.42395C38.2301 3.28767 36.527 4.52806 35.0843 6.13084C35.0019 6.22236 34.9935 6.28475 35.0575 6.39607C36.5695 9.0259 38.0762 11.6586 39.5841 14.2908C39.8549 14.7635 40.1263 15.2359 40.4109 15.7319C42.3003 12.4848 44.1765 9.26054 46.0526 6.03627ZM46.2268 25.7124C46.2108 25.6933 46.1948 25.6741 46.1789 25.6549C46.7694 24.566 47.4031 23.5007 48.016 22.4241C48.6317 21.3426 49.2528 20.2643 49.8718 19.1847C50.4891 18.1079 51.1067 17.0313 51.7358 15.9343C47.9919 15.9343 44.2842 15.9343 40.5461 15.9343C40.5973 16.0385 40.632 16.1203 40.6758 16.1967C41.8214 18.1972 42.968 20.1971 44.1141 22.1974C44.7293 23.2711 45.3445 24.3449 45.9571 25.4202C46.0009 25.4971 46.023 25.5863 46.0681 25.7032C42.341 25.7032 38.6628 25.7032 34.9846 25.7032C34.979 25.724 34.9733 25.7448 34.9676 25.7656C38.3013 29.36 42.404 31.1181 47.325 30.7507C51.2983 30.4541 54.5957 28.717 57.2657 25.7831C57.2591 25.7595 57.2525 25.7359 57.2459 25.7123C53.5728 25.7124 49.8998 25.7124 46.2268 25.7124ZM34.7936 6.54512C34.7746 6.5393 34.7557 6.53349 34.7367 6.52767C32.4317 9.37451 31.2594 12.6306 31.3292 16.3048C31.393 19.6522 32.5046 22.6359 34.5684 25.261C34.5855 25.2575 34.6027 25.2539 34.6199 25.2504C34.6778 19.0154 34.7357 12.7803 34.7936 6.54512ZM57.6616 25.2691C59.5947 22.9662 61.3719 19.0295 60.8573 14.3793C60.5312 11.4324 59.4095 8.81996 57.5371 6.53273C57.5213 6.53716 57.5056 6.54164 57.4898 6.54607C57.547 12.7784 57.6042 19.0109 57.6616 25.2691Z" fill="#970CBC"/>
<path d="M46.0525 6.03625C44.1764 9.26051 42.3002 12.4848 40.4108 15.7319C40.1262 15.236 39.8549 14.7635 39.584 14.2908C38.0762 11.6587 36.5694 9.02587 35.0574 6.39611C34.9935 6.28479 35.0018 6.2224 35.0842 6.13087C36.5269 4.5281 38.23 3.28771 40.2062 2.42399C42.3337 1.49422 44.5591 1.07798 46.8745 1.202C50.2178 1.38107 53.1815 2.55067 55.7357 4.72316C56.2519 5.16223 56.7115 5.66798 57.1988 6.1413C57.2677 6.20824 57.2877 6.25951 57.2317 6.35704C55.4555 9.44667 53.6834 12.5388 51.9106 15.6304C51.8837 15.6774 51.8547 15.7232 51.8068 15.8028C49.9032 12.5326 48.0117 9.28308 46.1202 6.03359C46.0975 6.03441 46.075 6.03536 46.0525 6.03625Z" fill="black"/>
<path d="M46.2268 25.7124C49.8998 25.7124 53.5728 25.7124 57.2458 25.7124C57.2524 25.736 57.2591 25.7595 57.2657 25.7831C54.5957 28.7171 51.2983 30.4541 47.325 30.7507C42.404 31.1181 38.3012 29.36 34.9675 25.7656C34.9732 25.7448 34.9789 25.724 34.9846 25.7033C38.6628 25.7033 42.3409 25.7033 46.0681 25.7033C46.0229 25.5863 46.0008 25.4971 45.9571 25.4203C45.3445 24.345 44.7293 23.2712 44.114 22.1974C42.968 20.1972 41.8213 18.1973 40.6757 16.1968C40.6319 16.1203 40.5973 16.0386 40.546 15.9343C44.2841 15.9343 47.9919 15.9343 51.7358 15.9343C51.1067 17.0313 50.4891 18.108 49.8718 19.1848C49.2528 20.2643 48.6316 21.3427 48.0159 22.4241C47.403 23.5007 46.7694 24.566 46.1789 25.655C46.1948 25.6741 46.2108 25.6933 46.2268 25.7124Z" fill="#000001"/>
<path d="M34.7934 6.54509C34.7355 12.7802 34.6776 19.0153 34.6197 25.2504C34.6026 25.254 34.5854 25.2575 34.5682 25.261C32.5045 22.636 31.3928 19.6523 31.3291 16.3049C31.2592 12.6305 32.4315 9.37454 34.7366 6.52771C34.7556 6.53346 34.7746 6.53928 34.7934 6.54509Z" fill="#010001"/>
<path d="M57.6616 25.2691C57.6042 19.0109 57.547 12.7785 57.4897 6.54599C57.5055 6.54157 57.5213 6.53708 57.5371 6.53265C59.4095 8.81988 60.5312 11.4323 60.8573 14.3792C61.3719 19.0295 59.5947 22.9662 57.6616 25.2691Z" fill="#010001"/>
<path d="M0.131348 16C0.131348 7.16344 7.29479 0 16.1313 0V0C24.9679 0 32.1313 7.16344 32.1313 16V16C32.1313 24.8366 24.9679 32 16.1313 32V32C7.29479 32 0.131348 24.8366 0.131348 16V16Z" fill="#708B96"/>
<path fill-rule="evenodd" clip-rule="evenodd" d="M17.6673 22.365C17.6673 22.365 17.6673 22.3649 17.6673 22.3649V23.072H23.1713V21.088H20.4534C22.0887 19.849 23.1394 17.923 23.1394 15.76C23.1394 12.0221 20.0018 8.992 16.1314 8.992C12.261 8.992 9.12337 12.0221 9.12337 15.76C9.12337 17.923 10.174 19.849 11.8094 21.088H9.09131V23.072H14.5953V23.04H14.5953V20.4054C12.5899 19.7741 11.1394 17.9401 11.1394 15.776C11.1394 13.0897 13.3743 10.912 16.1314 10.912C18.8884 10.912 21.1234 13.0897 21.1234 15.776C21.1234 17.9402 19.6728 19.7742 17.6673 20.4054V22.365Z" fill="white"/>
</svg>
