<svg version="1.1" id="Layer_1" xmlns="http://www.w3.org/2000/svg" xmlns:xlink="http://www.w3.org/1999/xlink" x="0px" y="0px"
	 viewBox="0 0 612 792" style="enable-background:new 0 0 612 792;" xml:space="preserve">
<circle cx="26" cy="26" r="26" fill="url(#paint0_linear_7_10)"/>
<g filter="url(#filter0_i_7_10)">
<path d="M38.3827 13.5702C35.0626 10.25 30.6483 8.42188 25.9529 8.42188C21.2581 8.42188 16.8439 10.25 13.5237 13.5702C10.2036 16.8903 8.37476 21.3045 8.37476 26C8.37476 30.6955 10.2029 35.1097 13.523 38.4298C16.8439 41.75 21.2581 43.5781 25.9529 43.5781C30.6483 43.5781 35.0626 41.75 38.3827 38.4298C41.7029 35.1097 43.531 30.6955 43.531 26C43.531 21.3045 41.7029 16.8903 38.3827 13.5702ZM26.8339 41.7922V22.7713H37.8962C38.1746 23.8013 38.3244 24.8834 38.3244 26C38.3244 26.1441 38.3209 26.2869 38.3159 26.4296H40.0182C40.0224 26.2869 40.0252 26.1434 40.0252 26C40.0252 24.8891 39.8951 23.8084 39.6512 22.7713H39.6533C39.5176 22.1947 39.3467 21.6315 39.1421 21.0845H39.1386H37.3083H37.3041H14.6016H14.5974H12.7672H12.7637C12.7545 21.1091 12.7468 21.1337 12.7376 21.1576C12.552 21.6645 12.3938 22.1848 12.2666 22.7164C12.2623 22.7347 12.2574 22.7523 12.2532 22.7705H12.2553C12.0106 23.8084 11.8812 24.8891 11.8812 26C11.8812 26.1441 11.8841 26.2869 11.8883 26.4296H13.5898C13.5849 26.2869 13.5814 26.1434 13.5814 26C13.5814 24.8834 13.7312 23.8013 14.0096 22.7713H25.0719V41.7922C16.7588 41.333 10.1361 34.4255 10.1361 26C10.1361 17.2784 17.2313 10.1832 25.9529 10.1832C34.6744 10.1832 41.7697 17.2784 41.7697 26C41.7697 34.4255 35.1469 41.333 26.8339 41.7922Z" fill="white"/>
</g>
<g filter="url(#filter1_i_7_10)">
<path d="M36.5377 30.0043H37.6128C36.3366 33.6381 33.38 36.5152 29.7132 37.6895V23.8182H27.9518V39.9352L29.0227 39.6983C31.58 39.1323 33.927 37.861 35.8114 36.0216C37.6922 34.1851 39.0197 31.8732 39.649 29.3356L39.9204 28.243H36.5377V30.0043V30.0043Z" fill="white"/>
</g>
<g filter="url(#filter2_i_7_10)">
<path d="M15.3687 30.0043H14.2936C15.5698 33.6381 18.5265 36.5152 22.1933 37.6895V23.8182H23.9546V39.9352L22.8837 39.6983C20.3265 39.1323 17.9794 37.861 16.0951 36.0216C14.2142 34.1851 12.8867 31.8732 12.2574 29.3356L11.9867 28.243H15.3694V30.0043H15.3687Z" fill="white"/>
</g>
<g filter="url(#filter3_i_7_10)">
<path d="M35.5695 18.2572H29.4734C29.8637 17.623 30.0894 16.8777 30.0894 16.0803C30.0894 15.4011 29.9248 14.7599 29.6352 14.1931C28.9869 12.9247 27.7086 12.0303 26.2145 11.927C26.1188 11.9206 26.0218 11.9157 25.9248 11.9157C25.827 11.9157 25.7307 11.9206 25.6351 11.927C24.1416 12.0303 22.8627 12.924 22.2144 14.1931C21.9247 14.7599 21.7602 15.4011 21.7602 16.0803C21.7602 16.8777 21.9859 17.6237 22.3761 18.2572H16.28H14.1777C13.8071 18.8176 13.4759 19.4061 13.187 20.0185H15.0966H24.5741H25.0726V18.2572V18.2452C24.2098 17.9042 23.5974 17.0626 23.5974 16.0803C23.5974 14.7971 24.6416 13.753 25.9248 13.753C27.208 13.753 28.2521 14.7971 28.2521 16.0803C28.2521 17.0415 27.6664 17.8677 26.8339 18.2227V18.2572V20.0185H27.2762H36.7536H38.6633C38.375 19.4061 38.0431 18.8176 37.6726 18.2572H35.5695V18.2572Z" fill="white"/>
</g>
<defs>
<filter id="filter0_i_7_10" x="8.37476" y="8.42188" width="35.1562" height="35.1562" filterUnits="userSpaceOnUse" color-interpolation-filters="sRGB">
<feFlood flood-opacity="0" result="BackgroundImageFix"/>
<feBlend mode="normal" in="SourceGraphic" in2="BackgroundImageFix" result="shape"/>
<feColorMatrix in="SourceAlpha" type="matrix" values="0 0 0 0 0 0 0 0 0 0 0 0 0 0 0 0 0 0 127 0" result="hardAlpha"/>
<feOffset dx="1" dy="1"/>
<feComposite in2="hardAlpha" operator="arithmetic" k2="-1" k3="1"/>
<feColorMatrix type="matrix" values="0 0 0 0 0 0 0 0 0 0 0 0 0 0 0 0 0 0 0.25 0"/>
<feBlend mode="normal" in2="shape" result="effect1_innerShadow_7_10"/>
</filter>
<filter id="filter1_i_7_10" x="27.9518" y="23.8182" width="11.9686" height="16.117" filterUnits="userSpaceOnUse" color-interpolation-filters="sRGB">
<feFlood flood-opacity="0" result="BackgroundImageFix"/>
<feBlend mode="normal" in="SourceGraphic" in2="BackgroundImageFix" result="shape"/>
<feColorMatrix in="SourceAlpha" type="matrix" values="0 0 0 0 0 0 0 0 0 0 0 0 0 0 0 0 0 0 127 0" result="hardAlpha"/>
<feOffset dx="1" dy="1"/>
<feComposite in2="hardAlpha" operator="arithmetic" k2="-1" k3="1"/>
<feColorMatrix type="matrix" values="0 0 0 0 0 0 0 0 0 0 0 0 0 0 0 0 0 0 0.25 0"/>
<feBlend mode="normal" in2="shape" result="effect1_innerShadow_7_10"/>
</filter>
<filter id="filter2_i_7_10" x="11.9867" y="23.8182" width="11.9679" height="16.117" filterUnits="userSpaceOnUse" color-interpolation-filters="sRGB">
<feFlood flood-opacity="0" result="BackgroundImageFix"/>
<feBlend mode="normal" in="SourceGraphic" in2="BackgroundImageFix" result="shape"/>
<feColorMatrix in="SourceAlpha" type="matrix" values="0 0 0 0 0 0 0 0 0 0 0 0 0 0 0 0 0 0 127 0" result="hardAlpha"/>
<feOffset dx="1" dy="1"/>
<feComposite in2="hardAlpha" operator="arithmetic" k2="-1" k3="1"/>
<feColorMatrix type="matrix" values="0 0 0 0 0 0 0 0 0 0 0 0 0 0 0 0 0 0 0.25 0"/>
<feBlend mode="normal" in2="shape" result="effect1_innerShadow_7_10"/>
</filter>
<filter id="filter3_i_7_10" x="13.187" y="11.9157" width="25.4763" height="8.10281" filterUnits="userSpaceOnUse" color-interpolation-filters="sRGB">
<feFlood flood-opacity="0" result="BackgroundImageFix"/>
<feBlend mode="normal" in="SourceGraphic" in2="BackgroundImageFix" result="shape"/>
<feColorMatrix in="SourceAlpha" type="matrix" values="0 0 0 0 0 0 0 0 0 0 0 0 0 0 0 0 0 0 127 0" result="hardAlpha"/>
<feOffset dx="1" dy="1"/>
<feComposite in2="hardAlpha" operator="arithmetic" k2="-1" k3="1"/>
<feColorMatrix type="matrix" values="0 0 0 0 0 0 0 0 0 0 0 0 0 0 0 0 0 0 0.25 0"/>
<feBlend mode="normal" in2="shape" result="effect1_innerShadow_7_10"/>
</filter>
<linearGradient id="paint0_linear_7_10" x1="8" y1="-4.57351e-07" x2="46" y2="57" gradientUnits="userSpaceOnUse">
<stop stop-color="#FF7200"/>
<stop offset="1" stop-color="#CA5B02"/>
</linearGradient>
</defs>
</svg>
