<?xml version="1.0" encoding="iso-8859-1"?>
<!-- Generator: Adobe Illustrator 19.0.0, SVG Export Plug-In . SVG Version: 6.00 Build 0)  -->
<svg version="1.1" id="Layer_1" xmlns="http://www.w3.org/2000/svg" xmlns:xlink="http://www.w3.org/1999/xlink" x="0px" y="0px"
	 viewBox="0 0 612 792" style="enable-background:new 0 0 612 792;" xml:space="preserve">
<g>
	<path style="fill:#970CBC;" d="M60.656,371.544c0.505-134.54,108.367-242.955,243.002-243.362
		c135.221-0.409,243.148,107.869,244.35,241.05c1.223,135.421-107.629,245.356-243.316,245.767
		C170.064,615.407,61.064,506.543,60.656,371.544z M390.783,368.576c0.796-1.317,1.424-2.311,2.008-3.329
		c26.811-46.715,53.609-93.438,80.467-140.127c0.846-1.47,0.858-2.35-0.359-3.525c-7.439-7.183-14.429-14.886-22.292-21.565
		c-38.901-33.049-84.039-50.84-134.958-53.562c-35.263-1.885-69.156,4.449-101.557,18.594
		c-30.098,13.14-56.033,32.015-78.007,56.395c-1.261,1.399-1.366,2.35-0.395,4.036c23.026,40.008,45.974,80.061,68.938,120.104
		c4.123,7.189,8.256,14.373,12.587,21.913c28.803-49.441,57.4-98.53,85.998-147.618c0.325,0.025,0.65,0.05,0.975,0.076
		c14.385,24.708,28.763,49.421,43.158,74.124C361.75,318.812,376.172,343.524,390.783,368.576z M134.274,519.042
		c36.582,44.548,109.832,87.738,199.466,75.893c55.948-7.393,102.492-32.912,140.168-74.565c-0.13-0.363-0.26-0.727-0.39-1.09
		c-55.887,0-111.774,0-168.131,0c0.432-1.471,0.596-2.544,1.054-3.472c0.857-1.737,1.877-3.393,2.843-5.076
		c26.258-45.746,52.517-91.49,78.77-137.239c0.511-0.891,0.933-1.834,1.489-2.936c-56.936,0-113.355,0-170.282,0
		c0.811,1.643,1.377,2.964,2.087,4.203c13.955,24.348,27.928,48.686,41.894,73.028c12.771,22.26,25.546,44.518,38.284,66.797
		c0.723,1.265,1.131,2.711,1.841,4.456C246.707,519.042,190.721,519.042,134.274,519.042z M131.662,227.662
		c-0.276-0.057-0.551-0.115-0.827-0.172c-32.947,40.43-50.75,86.712-51.916,138.987c-1.216,54.551,15.773,103.174,49.288,146.026
		c0.27-0.049,0.539-0.097,0.809-0.146C129.899,417.459,130.78,322.561,131.662,227.662z M477.321,227.02
		c0.879,95.528,1.751,190.317,2.627,285.576C545.124,434.126,548.603,311.218,477.321,227.02z M303.93,260.646
		c-17.408,29.969-34.497,59.386-51.752,89.091c34.757,0,68.936,0,103.529,0C338.445,320.034,321.38,290.672,303.93,260.646z"/>
	<path d="M390.783,368.576c-14.611-25.052-29.033-49.764-43.438-74.485c-14.395-24.703-28.773-49.415-43.158-74.124
		c-0.325-0.025-0.65-0.05-0.975-0.076c-28.597,49.088-57.195,98.177-85.998,147.618c-4.332-7.54-8.464-14.724-12.587-21.913
		c-22.964-40.043-45.912-80.096-68.938-120.104c-0.971-1.687-0.866-2.637,0.395-4.036c21.974-24.38,47.909-43.256,78.007-56.395
		c32.401-14.145,66.295-20.479,101.557-18.594c50.919,2.722,96.057,20.513,134.958,53.562c7.862,6.679,14.853,14.382,22.292,21.565
		c1.217,1.175,1.205,2.055,0.359,3.525c-26.857,46.689-53.656,93.411-80.467,140.127
		C392.207,366.265,391.579,367.259,390.783,368.576z"/>
	<path style="fill:#000001;" d="M134.274,519.042c56.447,0,112.434,0,169.092,0c-0.71-1.745-1.118-3.191-1.841-4.456
		c-12.738-22.279-25.513-44.537-38.284-66.797c-13.966-24.342-27.939-48.68-41.894-73.028c-0.71-1.239-1.276-2.559-2.087-4.203
		c56.927,0,113.346,0,170.282,0c-0.556,1.102-0.977,2.045-1.489,2.936c-26.252,45.749-52.512,91.493-78.77,137.239
		c-0.966,1.682-1.986,3.339-2.843,5.076c-0.458,0.928-0.622,2.002-1.054,3.472c56.357,0,112.244,0,168.131,0
		c0.13,0.363,0.26,0.727,0.39,1.09c-37.676,41.652-84.219,67.172-140.168,74.565C244.106,606.78,170.856,563.591,134.274,519.042z"
		/>
	<path style="fill:#010001;" d="M131.662,227.662c-0.882,94.898-1.763,189.797-2.645,284.695c-0.27,0.049-0.539,0.097-0.809,0.146
		c-33.515-42.852-50.505-91.475-49.288-146.026c1.166-52.275,18.969-98.557,51.916-138.987
		C131.111,227.548,131.386,227.605,131.662,227.662z"/>
	<path style="fill:#010001;" d="M477.321,227.02c71.282,84.199,67.803,207.107,2.627,285.576
		C479.071,417.337,478.199,322.548,477.321,227.02z"/>
	<path style="fill:#000001;" d="M303.93,260.646c17.45,30.026,34.515,59.389,51.777,89.091c-34.592,0-68.772,0-103.529,0
		C269.433,320.031,286.521,290.614,303.93,260.646z"/>
</g>
</svg>