<svg width="32" height="32" viewBox="0 0 32 32" fill="none" xmlns="http://www.w3.org/2000/svg">
<path fill-rule="evenodd" clip-rule="evenodd" d="M15.9825 30.0044C23.6879 30.0044 29.9343 23.7579 29.9343 16.0525C29.9343 14.4341 29.6588 12.88 29.152 11.4347V6.88568C30.9476 9.47189 32 12.613 32 16C32 24.8366 24.8366 32 16 32C7.16344 32 0 24.8366 0 16C0 12.593 1.0649 9.43467 2.88 6.83976V11.2478C2.33054 12.7458 2.03062 14.3641 2.03062 16.0525C2.03062 23.7579 8.27708 30.0044 15.9825 30.0044Z" fill="url(#paint0_linear_1158:370)"/>
<path d="M3.552 16C3.552 9.12516 9.12516 3.552 16 3.552V3.552C22.8748 3.552 28.448 9.12516 28.448 16V16C28.448 22.8748 22.8748 28.448 16 28.448V28.448C9.12516 28.448 3.552 22.8748 3.552 16V16Z" fill="#708B96"/>
<path fill-rule="evenodd" clip-rule="evenodd" d="M17.1951 21.4771V21.502H21.4772V19.9585H19.3626C20.6349 18.9945 21.4523 17.4961 21.4523 15.8133C21.4523 12.9052 19.0112 10.5478 16.0001 10.5478C12.9889 10.5478 10.5478 12.9052 10.5478 15.8133C10.5478 17.4961 11.3653 18.9945 12.6375 19.9585H10.5229V21.502H14.8051V20.9519C14.8051 20.9519 14.8051 20.9519 14.8051 20.9519V19.4274C13.2448 18.9363 12.1163 17.5094 12.1163 15.8257C12.1163 13.7358 13.8551 12.0415 16.0001 12.0415C18.145 12.0415 19.8839 13.7358 19.8839 15.8257C19.8839 17.5094 18.7553 18.9363 17.1951 19.4274V21.4771H17.1951Z" fill="white"/>
<defs>
<linearGradient id="paint0_linear_1158:370" x1="-26.7309" y1="16" x2="60.4989" y2="16" gradientUnits="userSpaceOnUse">
<stop stop-color="#708B96"/>
<stop offset="1" stop-color="#F7FBE7"/>
</linearGradient>
</defs>
</svg>
